<?xml version="1.0" encoding="UTF-8"?><svg xmlns="http://www.w3.org/2000/svg" viewBox="0 0 114.82 147.39"><defs><style>.d{fill:#fff;}.e{fill:#1d2333;stroke:#73afd8;stroke-width:5px;}.e,.f{stroke-miterlimit:10;}.g{fill:#0083db;}.h{fill:#1e90ff;}.f{fill:none;stroke:#0083db;stroke-width:12px;}</style></defs><g id="a"/><g id="b"><g id="c"><g><g><circle class="f" cx="81.65" cy="89.3" r="27.17"/><ellipse class="e" cx="43.44" cy="52.8" rx="40.76" ry="8.39"/><g><path class="h" d="M25.55,97.9v-4.1h-4.1c-.75,0-1.36-.61-1.36-1.36v-.27c0-.75,.61-1.36,1.36-1.36h4.1v-4.1c0-.75,.62-1.36,1.37-1.36h.26c.75,0,1.36,.61,1.36,1.36v4.1h4.1c.76,0,1.37,.61,1.37,1.36v.27c0,.75-.61,1.36-1.37,1.36h-4.1v4.1c0,.75-.61,1.36-1.36,1.36h-.26c-.75,0-1.37-.61-1.37-1.36Z"/><path class="h" d="M43.34,59.77v20.89H25.91c-2.87,0-5.64,1.19-7.52,3.36-.03,.03-.06,.07-.09,.1-1.54,1.81-2.63,3.96-3.28,6.24l-4.87,16.82c-.44,1.53-.66,3.13-.55,4.72,.07,1.03,.25,1.92,.5,2.68,1.03,3.18,4.25,5.23,7.55,4.74,2.33-.35,3.35-1.75,3.35-1.75,2.86-3.76,7.32-11.91,7.32-11.91h15.03v41.72c-.22,0-.44,0-.66,0-.1,0-.21,0-.32,0-.12,0-.23,0-.34,0C-1.51,146.68,0,111.52,0,111.52L.41,52.01l1.23,.88c.21,.15,.44,.28,.67,.39l1.51,.67c7.22,2.89,13.24,3.73,21,4.63l6.99,.59c4.32,.47,7.58,.62,11.53,.59h0Z"/><path class="h" d="M42.77,59.77v20.89h17.43c2.87,0,5.64,1.19,7.52,3.36,.03,.03,.06,.07,.09,.1,1.54,1.81,2.63,3.96,3.28,6.24l4.87,16.82c.44,1.53,.66,3.13,.55,4.72-.07,1.03-.25,1.92-.5,2.68-1.03,3.18-4.25,5.23-7.55,4.74-2.33-.35-3.35-1.75-3.35-1.75-2.86-3.76-7.32-11.91-7.32-11.91h-15.03v41.72c.22,0,.44,0,.66,0,.1,0,.21,0,.32,0,.12,0,.23,0,.34,0,43.53-.7,42.01-35.85,42.01-35.85l.25-59.74-1.88,1.11c-.21,.15-.44,.28-.67,.39l-1.51,.67c-7.22,2.89-13.24,3.73-21,4.63l-6.99,.59c-4.32,.47-7.58,.62-11.53,.59h0Z"/><path class="h" d="M50.52,94.56c-1.25,0-2.26-1.01-2.26-2.27s1.01-2.26,2.26-2.26,2.26,1.01,2.26,2.26-1.01,2.27-2.26,2.27Z"/><path class="h" d="M53.34,97.31c0-1.25,1.01-2.26,2.27-2.26s2.26,1.01,2.26,2.26-1.01,2.26-2.26,2.26-2.27-1.01-2.27-2.26Z"/><path class="h" d="M53.34,87.04c0-1.25,1.01-2.26,2.27-2.26s2.26,1.01,2.26,2.26-1.01,2.26-2.26,2.26-2.27-1.01-2.27-2.26Z"/><path class="h" d="M60.76,94.56c-1.25,0-2.27-1.01-2.27-2.27s1.01-2.26,2.27-2.26,2.26,1.01,2.26,2.26-1.01,2.27-2.26,2.27Z"/></g><g><path d="M34.02,92.17v.27c0,.75-.61,1.36-1.37,1.36h-4.1v4.1c0,.75-.61,1.36-1.36,1.36h-.26c-.75,0-1.37-.61-1.37-1.36v-4.1h-4.1c-.75,0-1.36-.61-1.36-1.36v-.27c0-.75,.61-1.36,1.36-1.36h4.1v-4.1c0-.75,.62-1.36,1.37-1.36h.26c.75,0,1.36,.61,1.36,1.36v4.1h4.1c.76,0,1.37,.61,1.37,1.36Z"/><path d="M52.78,92.3c0,1.25-1.01,2.27-2.26,2.27s-2.26-1.01-2.26-2.27,1.01-2.26,2.26-2.26,2.26,1.01,2.26,2.26Z"/><path d="M57.87,97.31c0,1.25-1.01,2.26-2.26,2.26s-2.27-1.01-2.27-2.26,1.01-2.26,2.27-2.26,2.26,1.01,2.26,2.26Z"/><path d="M57.87,87.04c0,1.25-1.01,2.26-2.26,2.26s-2.27-1.01-2.27-2.26,1.01-2.26,2.27-2.26,2.26,1.01,2.26,2.26Z"/><path d="M63.02,92.3c0,1.25-1.01,2.27-2.26,2.27s-2.27-1.01-2.27-2.27,1.01-2.26,2.27-2.26,2.26,1.01,2.26,2.26Z"/><rect class="d" x="25.55" y="85.34" width="3" height="13.92" rx="1.36" ry="1.36"/><rect class="d" x="20.09" y="90.8" width="13.93" height="3" rx="1.36" ry="1.36"/><path class="d" d="M57.87,87.04c0,1.25-1.01,2.26-2.26,2.26s-2.27-1.01-2.27-2.26,1.01-2.26,2.27-2.26,2.26,1.01,2.26,2.26Z"/><path class="d" d="M63.02,92.3c0,1.25-1.01,2.27-2.26,2.27s-2.27-1.01-2.27-2.27,1.01-2.26,2.27-2.26,2.26,1.01,2.26,2.26Z"/><path class="d" d="M57.87,97.31c0,1.25-1.01,2.26-2.26,2.26s-2.27-1.01-2.27-2.26,1.01-2.26,2.27-2.26,2.26,1.01,2.26,2.26Z"/><path class="d" d="M52.78,92.3c0,1.25-1.01,2.27-2.26,2.27s-2.26-1.01-2.26-2.27,1.01-2.26,2.26-2.26,2.26,1.01,2.26,2.26Z"/></g><rect class="h" x="7.79" y="71.26" width="71.09" height="52.1"/><g><rect class="d" x="19.2" y="85.69" width="4.87" height="22.62" rx="2.22" ry="2.22"/><path class="d" d="M32.95,96.79v.43c0,1.22-.99,2.22-2.23,2.22H12.54c-1.22,0-2.22-.99-2.22-2.22v-.43c0-1.22,.99-2.22,2.22-2.22H30.73c1.23,0,2.23,.99,2.23,2.22Z"/></g><g><path class="d" d="M64.69,88.45c0,2.04-1.65,3.67-3.67,3.67s-3.68-1.64-3.68-3.67,1.65-3.67,3.68-3.67,3.67,1.65,3.67,3.67Z"/><path class="d" d="M73.06,96.99c0,2.04-1.65,3.68-3.67,3.68s-3.68-1.65-3.68-3.68,1.65-3.67,3.68-3.67,3.67,1.65,3.67,3.67Z"/><path class="d" d="M64.69,105.14c0,2.04-1.65,3.67-3.67,3.67s-3.68-1.64-3.68-3.67,1.65-3.67,3.68-3.67,3.67,1.65,3.67,3.67Z"/><path class="d" d="M56.42,96.99c0,2.04-1.65,3.68-3.67,3.68s-3.67-1.65-3.67-3.68,1.65-3.67,3.67-3.67,3.67,1.65,3.67,3.67Z"/></g><path class="g" d="M76.7,55.87l.39,56.7c0,13.67-9.53,25.56-22.91,28.38-11.52,2.42-26.96,2.26-45.3-6.1,0,0,3.71,5.25,14.41,9.41,0,0,15.18,6.69,40.36,0,0,0,1.08-.31,2.75-1.06,7.63-3.37,13.68-9.53,17.07-17.14,1.49-3.34,3.3-7.81,3.3-9.85,.01-3.47-.42-64.53-.42-64.53,0,0-2.65,2.2-9.66,4.19Z"/></g><path class="d" d="M37.74,.91c-6.6,6.92-8.68,13.83-3.13,22.02,2.05,3.16,3.73,6.53,4.18,10.5,.93,6.15-1.96,12.74-6.56,16.61-2.18,1.88-4.58,3.35-7.27,4.19-.27,.09-.56-.07-.65-.34-.06-.19,0-.38,.12-.51,3.3-4.07,5.92-8.42,6.63-12.61,.95-4.73-.89-9.29-3.65-13.33-2.07-3.29-3.48-7.08-3.57-11.05C23.56,8.43,29.75,1.46,37.29,.01c.5-.1,.83,.56,.44,.9h0Z"/><path class="d" d="M62.4,1.27c-6.6,6.92-8.68,13.83-3.13,22.02,2.05,3.16,3.73,6.53,4.18,10.5,.93,6.15-1.96,12.74-6.56,16.61-2.18,1.88-4.58,3.35-7.27,4.19-.27,.09-.56-.07-.65-.34-.06-.19,0-.38,.12-.51,3.3-4.07,5.92-8.42,6.63-12.61,.95-4.73-.89-9.29-3.65-13.33-2.07-3.29-3.48-7.08-3.57-11.05-.28-7.96,5.91-14.93,13.45-16.38,.5-.1,.83,.56,.44,.9h0Z"/></g></g></g></svg>