<?xml version="1.0" encoding="UTF-8"?><svg xmlns="http://www.w3.org/2000/svg" viewBox="0 0 397.66 193.25"><defs><style>.d,.e{fill:#fff;}.f{fill:#1d2333;stroke:#73afd8;stroke-width:5px;}.f,.g{stroke-miterlimit:10;}.e{font-family:SmudgeStickOblique, SmudgeStick;font-size:69.28px;}.h{fill:#0083db;}.i{fill:#1e90ff;}.g{fill:none;stroke:#0083db;stroke-width:15px;}</style></defs><g id="a"/><g id="b"><g id="c"><g><text class="e" transform="translate(171.84 150.06)"><tspan x="0" y="0">avings</tspan></text><circle class="g" cx="95.38" cy="125.39" r="31.74"/><ellipse class="f" cx="50.75" cy="81.56" rx="47.62" ry="9.8"/><path class="d" d="M53.59,.6c-2.68,12.56-2.16,23.05,3.99,33.38,.67,1.01,1.28,2.1,1.93,3.12,3.96,6,6.21,13.23,6.2,20.42-.06,10.4-4.24,20.9-12.1,27.72l-.85-.53c1.23-7.67,1.82-14.79,1.11-21.33-.64-6.33-2.49-12.11-5.8-17.42-2.29-3.5-4.36-7.16-5.65-11.16-3.39-10.4-1.4-22.47,5.77-30.7,1.36-1.56,2.84-2.97,4.6-4.11l.8,.6h0Z"/><path class="d" d="M20.43,37.83c6.21-.92,12.2,2.23,15.35,7.89,2.27,4.19,2.56,9,1.57,13.51-.37,1.44-.88,2.83-1.38,4.22-3.44,7.71-1.17,13.32,3.67,21.08l-.42,.91c-5.91,.15-11.29-2.74-14.89-7.61-3.85-5.2-4.38-12.76-2.1-18.76,1.77-4.71,3.75-9.07,1.4-14.16-.79-1.89-2.02-3.89-3.54-6.13l.33-.94h0Z"/><g><path class="i" d="M29.85,135.43v-4.79h-4.79c-.88,0-1.59-.71-1.59-1.59v-.31c0-.88,.71-1.59,1.59-1.59h4.79v-4.79c0-.88,.72-1.59,1.6-1.59h.3c.88,0,1.59,.71,1.59,1.59v4.79h4.79c.89,0,1.6,.71,1.6,1.59v.31c0,.88-.71,1.59-1.6,1.59h-4.79v4.79c0,.88-.71,1.59-1.59,1.59h-.3c-.88,0-1.6-.71-1.6-1.59Z"/><path class="i" d="M50.63,90.89v24.41H30.27c-3.36,0-6.59,1.39-8.79,3.92-.04,.04-.08,.08-.11,.12-1.8,2.11-3.07,4.62-3.83,7.29l-5.69,19.64c-.52,1.79-.77,3.66-.65,5.52,.08,1.2,.3,2.24,.58,3.13,1.2,3.71,4.96,6.11,8.82,5.53,2.73-.41,3.92-2.04,3.92-2.04,3.34-4.4,8.55-13.91,8.55-13.91h17.56v48.74c-.26,0-.52,0-.77,0-.12,0-.25,0-.37,0-.14,0-.27,0-.39,0C-1.77,192.42,0,151.35,0,151.35L.48,81.82l1.44,1.03c.25,.18,.51,.33,.79,.45l1.76,.79c8.43,3.38,15.47,4.35,24.54,5.41l8.17,.69c5.05,.54,8.86,.72,13.47,.69h0Z"/><path class="i" d="M49.97,90.89v24.41h20.36c3.36,0,6.59,1.39,8.79,3.92,.04,.04,.08,.08,.11,.12,1.8,2.11,3.07,4.62,3.83,7.29l5.69,19.64c.52,1.79,.77,3.66,.65,5.52-.08,1.2-.3,2.24-.58,3.13-1.2,3.71-4.96,6.11-8.82,5.53-2.73-.41-3.92-2.04-3.92-2.04-3.34-4.4-8.55-13.91-8.55-13.91h-17.56v48.74c.26,0,.52,0,.77,0,.12,0,.25,0,.37,0,.14,0,.27,0,.39,0,50.86-.81,49.08-41.89,49.08-41.89l.29-69.79-2.2,1.29c-.25,.18-.51,.33-.79,.45l-1.76,.79c-8.43,3.38-15.47,4.35-24.54,5.41l-8.17,.69c-5.05,.54-8.86,.72-13.47,.69h0Z"/><path class="i" d="M59.02,131.54c-1.46,0-2.64-1.18-2.64-2.65s1.18-2.64,2.64-2.64,2.64,1.18,2.64,2.64-1.18,2.65-2.64,2.65Z"/><path class="i" d="M62.32,134.75c0-1.46,1.18-2.64,2.65-2.64s2.64,1.18,2.64,2.64-1.18,2.64-2.64,2.64-2.65-1.18-2.65-2.64Z"/><path class="i" d="M62.32,122.75c0-1.46,1.18-2.64,2.65-2.64s2.64,1.18,2.64,2.64-1.18,2.64-2.64,2.64-2.65-1.18-2.65-2.64Z"/><path class="i" d="M70.98,131.54c-1.47,0-2.65-1.18-2.65-2.65s1.18-2.64,2.65-2.64,2.64,1.18,2.64,2.64-1.18,2.65-2.64,2.65Z"/></g><g><path d="M39.74,128.73v.31c0,.88-.71,1.59-1.6,1.59h-4.79v4.79c0,.88-.71,1.59-1.59,1.59h-.3c-.88,0-1.6-.71-1.6-1.59v-4.79h-4.79c-.88,0-1.59-.71-1.59-1.59v-.31c0-.88,.71-1.59,1.59-1.59h4.79v-4.79c0-.88,.72-1.59,1.6-1.59h.3c.88,0,1.59,.71,1.59,1.59v4.79h4.79c.89,0,1.6,.71,1.6,1.59Z"/><path d="M61.66,128.89c0,1.47-1.18,2.65-2.64,2.65s-2.64-1.18-2.64-2.65,1.18-2.64,2.64-2.64,2.64,1.18,2.64,2.64Z"/><path d="M67.61,134.75c0,1.47-1.18,2.64-2.64,2.64s-2.65-1.18-2.65-2.64,1.18-2.64,2.65-2.64,2.64,1.18,2.64,2.64Z"/><path d="M67.61,122.75c0,1.47-1.18,2.64-2.64,2.64s-2.65-1.18-2.65-2.64,1.18-2.64,2.65-2.64,2.64,1.18,2.64,2.64Z"/><path d="M73.63,128.89c0,1.47-1.18,2.65-2.64,2.65s-2.65-1.18-2.65-2.65,1.18-2.64,2.65-2.64,2.64,1.18,2.64,2.64Z"/><rect class="d" x="29.85" y="120.76" width="3.5" height="16.27" rx="1.59" ry="1.59"/><path class="d" d="M39.74,128.73v.31c0,.88-.71,1.59-1.6,1.59h-13.08c-.88,0-1.59-.71-1.59-1.59v-.31c0-.88,.71-1.59,1.59-1.59h13.08c.89,0,1.6,.71,1.6,1.59Z"/><path class="d" d="M67.61,122.75c0,1.47-1.18,2.64-2.64,2.64s-2.65-1.18-2.65-2.64,1.18-2.64,2.65-2.64,2.64,1.18,2.64,2.64Z"/><path class="d" d="M73.63,128.89c0,1.47-1.18,2.65-2.64,2.65s-2.65-1.18-2.65-2.65,1.18-2.64,2.65-2.64,2.64,1.18,2.64,2.64Z"/><path class="d" d="M67.61,134.75c0,1.47-1.18,2.64-2.64,2.64s-2.65-1.18-2.65-2.64,1.18-2.64,2.65-2.64,2.64,1.18,2.64,2.64Z"/><path class="d" d="M61.66,128.89c0,1.47-1.18,2.65-2.64,2.65s-2.64-1.18-2.64-2.65,1.18-2.64,2.64-2.64,2.64,1.18,2.64,2.64Z"/></g><rect class="i" x="9.1" y="104.32" width="83.05" height="60.86"/><g><rect class="d" x="22.43" y="121.17" width="5.68" height="26.42" rx="2.59" ry="2.59"/><path class="d" d="M38.5,134.13v.51c0,1.43-1.16,2.59-2.6,2.59H14.65c-1.43,0-2.59-1.16-2.59-2.59v-.51c0-1.43,1.16-2.59,2.59-2.59h21.25c1.44,0,2.6,1.16,2.6,2.59Z"/></g><g><path class="d" d="M75.57,124.4c0,2.38-1.92,4.29-4.29,4.29s-4.3-1.91-4.3-4.29,1.92-4.29,4.3-4.29,4.29,1.92,4.29,4.29Z"/><path class="d" d="M85.35,134.37c0,2.38-1.92,4.3-4.29,4.3s-4.3-1.92-4.3-4.3,1.92-4.29,4.3-4.29,4.29,1.92,4.29,4.29Z"/><path class="d" d="M75.57,143.89c0,2.38-1.92,4.29-4.29,4.29s-4.3-1.91-4.3-4.29,1.92-4.29,4.3-4.29,4.29,1.92,4.29,4.29Z"/><path class="d" d="M65.92,134.37c0,2.38-1.92,4.3-4.29,4.3s-4.29-1.92-4.29-4.3,1.92-4.29,4.29-4.29,4.29,1.92,4.29,4.29Z"/></g><path class="h" d="M89.6,86.33l.45,66.24c0,15.97-11.13,29.86-26.76,33.15-13.46,2.83-31.5,2.64-52.92-7.12,0,0,4.33,6.14,16.83,10.99,0,0,17.73,7.82,47.14,0,0,0,1.26-.37,3.22-1.23,8.91-3.94,15.98-11.13,19.95-20.03,1.74-3.9,3.85-9.12,3.86-11.51,.02-4.06-.49-75.39-.49-75.39,0,0-3.1,2.56-11.28,4.89Z"/><text class="e" transform="translate(96.96 79.12)"><tspan x="0" y="0">teamy</tspan></text><path class="d" d="M171.9,96.37c-4.31,2.93-10.67,7.36-11.24,12.45-.36,2.49,.76,5.97,1.95,8.61,.72,1.54,1.8,3.61,2.58,5.16,6.81,13.02,3.63,28.5-11.27,33.48-3.74,1.2-7.56,1.66-11.43,1.03-.45-.07-.6-.69-.23-.96,6.41-5.01,14.31-11.08,12.21-19.69-.61-3.25-2.95-7.38-4.59-10.66-2.07-4.64-3.38-9.43-2.83-14.66,.81-9.8,9.48-16.6,18.98-16.51,.85-.03,7.57,.2,5.87,1.74h0Z"/><path class="d" d="M100.49,20.69c-4.31,2.93-10.67,7.36-11.24,12.45-.36,2.49,.76,5.97,1.95,8.61,.72,1.54,1.8,3.61,2.58,5.16,6.81,13.02,3.63,28.5-11.27,33.48-3.74,1.2-7.56,1.66-11.43,1.03-.29-.05-.49-.33-.44-.62,.03-.15,.11-.27,.23-.36,6.4-5,14.28-11.07,12.18-19.66-.61-3.25-2.95-7.38-4.59-10.66-2.07-4.64-3.38-9.43-2.83-14.66,.82-9.8,9.47-16.6,18.98-16.51,.85-.03,7.57,.2,5.87,1.74h0Z"/></g></g></g></svg>